<svg width="159" height="34" viewBox="0 0 159 34" fill="none" xmlns="http://www.w3.org/2000/svg">
<path d="M0 16.9166V0.71051H7.52293V16.9166C7.52293 21.963 11.7017 26.0776 16.7209 26.0776C21.8535 26.0776 26.0382 21.9689 26.0382 16.9166V0.71051H33.5611V16.9166C33.5611 25.9603 25.9189 33.3571 16.7209 33.3571C7.52293 33.3513 0 25.9545 0 16.9166Z" fill="white"/>
<path d="M71.5334 16.6822C71.5334 11.6357 67.3547 7.52119 62.2162 7.52119C57.2029 7.52119 53.0182 11.6299 53.0182 16.6822V32.8882H45.4952V16.6822C45.4952 7.52118 53.1374 0.241638 62.2162 0.241638C71.5334 0.241638 79.0563 7.52118 79.0563 16.6822V32.8882H71.5334V16.6822Z" fill="white"/>
<path d="M92.1946 0.71051H99.7176V32.8824H92.1946V0.71051Z" fill="white"/>
<path d="M114.048 0.71051H121.571V32.8824H114.048V0.71051Z" fill="white"/>
<path d="M133.511 16.6822C133.511 7.52119 141.034 0.241638 150.232 0.241638H158.351V7.52119H150.232C145.1 7.52119 140.915 11.6299 140.915 16.6822C140.915 21.6114 145.094 25.8431 150.232 25.8431H158.351V33.1227H150.232C141.034 33.1227 133.511 25.7259 133.511 16.6822Z" fill="white"/>
</svg>
