<svg width="17" height="18" viewBox="0 0 17 18" fill="none" xmlns="http://www.w3.org/2000/svg">
<path d="M8.83495 16.9917C10.1272 16.9917 11.1749 13.4137 11.1749 9.00005C11.1749 4.58636 10.1272 1.00836 8.83495 1.00836C7.54266 1.00836 6.49506 4.58636 6.49506 9.00005C6.49506 13.4137 7.54266 16.9917 8.83495 16.9917Z" stroke="white" stroke-width="0.65" stroke-linecap="round" stroke-linejoin="round"/>
<path d="M8.83499 16.9917C12.0094 16.9917 14.5828 13.4137 14.5828 9.00005C14.5828 4.58636 12.0094 1.00836 8.83499 1.00836C5.66055 1.00836 3.08716 4.58636 3.08716 9.00005C3.08716 13.4137 5.66055 16.9917 8.83499 16.9917Z" stroke="white" stroke-width="0.65" stroke-linecap="round" stroke-linejoin="round"/>
<path d="M1.52173 6.12262C1.92938 6.53834 2.51639 6.92079 3.23385 7.23674C3.27461 7.25337 3.32353 7.27831 3.3643 7.29494C4.25297 7.66908 5.32101 7.96008 6.51134 8.11805C7.2451 8.21783 8.02779 8.27603 8.83493 8.27603C9.64207 8.27603 10.4248 8.21783 11.1585 8.11805C12.3489 7.95177 13.425 7.66908 14.3056 7.29494C14.3463 7.27831 14.3952 7.25337 14.436 7.23674C15.1453 6.92079 15.7323 6.53834 16.1481 6.12262" stroke="white" stroke-width="0.65" stroke-linecap="round" stroke-linejoin="round"/>
<path d="M1.29352 11.1788C1.79085 11.8107 2.65506 12.3594 3.77202 12.7751C4.677 13.1077 5.73688 13.3571 6.90275 13.4902C7.52238 13.5567 8.16646 13.5982 8.835 13.5982C9.50355 13.5982 10.1476 13.565 10.7673 13.4902C11.9331 13.3571 13.0012 13.116 13.898 12.7751C15.0149 12.3594 15.8792 11.8107 16.3765 11.1788" stroke="white" stroke-width="0.65" stroke-linecap="round" stroke-linejoin="round"/>
<path d="M8.83499 17C13.1621 17 16.67 13.4183 16.67 9C16.67 4.58172 13.1621 1 8.83499 1C4.50784 1 1 4.58172 1 9C1 13.4183 4.50784 17 8.83499 17Z" stroke="white" stroke-width="0.65" stroke-linecap="round" stroke-linejoin="round"/>
</svg>
