<svg width="115" height="25" viewBox="0 0 115 25" fill="none" xmlns="http://www.w3.org/2000/svg">
<path d="M0 12.11V0.340576H5.46341V12.11C5.46341 15.7749 8.49816 18.763 12.1433 18.763C15.8707 18.763 18.9098 15.7792 18.9098 12.11V0.340576H24.3732V12.11C24.3732 18.6779 18.8232 24.0497 12.1433 24.0497C5.46341 24.0454 0 18.6736 0 12.11Z" fill="black"/>
<path d="M51.95 11.9397C51.95 8.27477 48.9152 5.28666 45.1835 5.28666C41.5427 5.28666 38.5036 8.27051 38.5036 11.9397V23.7091H33.0402V11.9397C33.0402 5.28666 38.5902 0 45.1835 0C51.95 0 57.4134 5.28666 57.4134 11.9397V23.7091H51.95V11.9397Z" fill="black"/>
<path d="M66.955 0.340576H72.4184V23.7049H66.955V0.340576Z" fill="black"/>
<path d="M82.8257 0.340576H88.2891V23.7049H82.8257V0.340576Z" fill="black"/>
<path d="M96.9603 11.9397C96.9603 5.28666 102.424 0 109.104 0H115V5.28666H109.104C105.376 5.28666 102.337 8.27051 102.337 11.9397C102.337 15.5195 105.372 18.5927 109.104 18.5927H115V23.8794H109.104C102.424 23.8794 96.9603 18.5076 96.9603 11.9397Z" fill="black"/>
</svg>
