<svg width="94" height="138" viewBox="0 0 94 138" fill="none" xmlns="http://www.w3.org/2000/svg">
<path d="M94 46.6764C94 20.8977 72.9574 0 47 0C21.0426 0 0 20.8977 0 46.6764V91.3236C0 117.102 21.0426 138 47 138C72.9574 138 94 117.102 94 91.3236V46.6764Z" fill="white"/>
<path d="M39.8397 95.9462C31.0868 95.9462 23.9724 88.8075 23.9724 80.0376V67.2312C23.9724 65.8494 25.0867 64.7329 26.4661 64.7329C27.8456 64.7329 28.9599 65.8494 28.9599 67.2312V80.0376C28.9599 86.0538 33.8417 90.9535 39.8457 90.9535C45.8498 90.9535 50.7316 86.0598 50.7316 80.0376V67.2312C50.7316 65.8494 51.8459 64.7329 53.2253 64.7329C54.6047 64.7329 55.719 65.8494 55.719 67.2312V80.0376C55.719 88.8135 48.5987 95.9462 39.8517 95.9462H39.8417H39.8397Z" fill="#141415"/>
<path d="M66.6089 80.2475C65.2314 80.2475 64.1151 79.131 64.1151 77.7472V64.9408C64.1151 58.9246 59.2333 54.0249 53.2293 54.0249C47.2252 54.0249 42.3434 58.9186 42.3434 64.9408V77.7472C42.3434 79.129 41.2291 80.2475 39.8497 80.2475C38.4703 80.2475 37.356 79.131 37.356 77.7472V64.9408C37.356 56.1649 44.4763 49.0322 53.2233 49.0322C61.9703 49.0322 69.0906 56.1709 69.0906 64.9408V77.7472C69.0906 79.129 67.9763 80.2475 66.5969 80.2475H66.6069H66.6089Z" fill="#141415"/>
<path d="M48.5827 138H45.4133C20.3704 138 0 117.576 0 92.4678V45.5302C0 20.4281 20.3744 0 45.4173 0H48.5867C73.6296 0 94 20.4281 94 45.5302V92.4678C94 117.576 73.6256 137.998 48.5867 137.998H48.5808L48.5827 138ZM45.4173 4.99864C23.1272 4.99864 4.98545 23.1818 4.98545 45.5361V92.4738C4.98545 114.822 23.1213 133.007 45.4173 133.007H48.5867C70.8767 133.007 89.0185 114.824 89.0185 92.4738V45.5361C89.0185 23.1877 70.8827 4.99864 48.5867 4.99864H45.4173Z" fill="#141415"/>
<path d="M66.5791 91.6562C64.3405 91.6562 62.5186 89.831 62.5186 87.586C62.5186 85.3411 64.3405 83.5159 66.5791 83.5159C68.8176 83.5159 70.6396 85.3411 70.6396 87.586C70.6396 89.831 68.8176 91.6562 66.5791 91.6562Z" fill="#141415"/>
<path d="M26.4662 60.9616C24.2276 60.9616 22.4056 59.1364 22.4056 56.8915C22.4056 54.6465 24.2276 52.8213 26.4662 52.8213C28.7047 52.8213 30.5267 54.6465 30.5267 56.8915C30.5267 59.1364 28.7047 60.9616 26.4662 60.9616Z" fill="#141415"/>
</svg>
