<svg width="17" height="18" viewBox="0 0 17 18" fill="none" xmlns="http://www.w3.org/2000/svg">
<path d="M8.83502 17.6331C10.1273 17.6331 11.1749 13.9116 11.1749 9.32093C11.1749 4.73026 10.1273 1.00879 8.83502 1.00879C7.54272 1.00879 6.49512 4.73026 6.49512 9.32093C6.49512 13.9116 7.54272 17.6331 8.83502 17.6331Z" stroke="black" stroke-width="0.65" stroke-linecap="round" stroke-linejoin="round"/>
<path d="M8.83499 17.6331C12.0094 17.6331 14.5828 13.9116 14.5828 9.32093C14.5828 4.73026 12.0094 1.00879 8.83499 1.00879C5.66055 1.00879 3.08716 4.73026 3.08716 9.32093C3.08716 13.9116 5.66055 17.6331 8.83499 17.6331Z" stroke="black" stroke-width="0.65" stroke-linecap="round" stroke-linejoin="round"/>
<path d="M1.52173 6.32812C1.92938 6.76051 2.51639 7.15831 3.23385 7.48692C3.27461 7.50421 3.32353 7.53016 3.3643 7.54745C4.25297 7.9366 5.32101 8.23927 6.51134 8.40358C7.2451 8.50735 8.02779 8.56788 8.83493 8.56788C9.64207 8.56788 10.4248 8.50735 11.1585 8.40358C12.3489 8.23062 13.425 7.9366 14.3056 7.54745C14.3463 7.53016 14.3952 7.50421 14.436 7.48692C15.1453 7.15831 15.7323 6.76051 16.1481 6.32812" stroke="black" stroke-width="0.65" stroke-linecap="round" stroke-linejoin="round"/>
<path d="M1.29346 11.5869C1.79079 12.2441 2.655 12.8149 3.77196 13.2473C4.67693 13.5932 5.73682 13.8526 6.90269 13.991C7.52232 14.0602 8.1664 14.1034 8.83494 14.1034C9.50348 14.1034 10.1476 14.0688 10.7672 13.991C11.9331 13.8526 13.0011 13.6018 13.8979 13.2473C15.0149 12.8149 15.8791 12.2441 16.3764 11.5869" stroke="black" stroke-width="0.65" stroke-linecap="round" stroke-linejoin="round"/>
<path d="M8.83499 17.6416C13.1621 17.6416 16.67 13.9162 16.67 9.32079C16.67 4.72535 13.1621 1 8.83499 1C4.50784 1 1 4.72535 1 9.32079C1 13.9162 4.50784 17.6416 8.83499 17.6416Z" stroke="black" stroke-width="0.65" stroke-linecap="round" stroke-linejoin="round"/>
</svg>
